<?xml version="1.0" encoding="UTF-8" standalone="no"?>
<!-- Generator: Adobe Illustrator 24.3.0, SVG Export Plug-In . SVG Version: 6.00 Build 0)  -->

<svg
   version="1.1"
   id="Layer_1"
   x="0px"
   y="0px"
   viewBox="0 0 3072000 2048000"
   xml:space="preserve"
   sodipodi:docname="vector-SVG.svg"
   width="3072000"
   height="2048000"
   xmlns:inkscape="http://www.inkscape.org/namespaces/inkscape"
   xmlns:sodipodi="http://sodipodi.sourceforge.net/DTD/sodipodi-0.dtd"
   xmlns="http://www.w3.org/2000/svg"
   xmlns:svg="http://www.w3.org/2000/svg"><defs
   id="defs20" /><sodipodi:namedview
   id="namedview20"
   pagecolor="#ffffff"
   bordercolor="#000000"
   borderopacity="0.25"
   inkscape:showpageshadow="2"
   inkscape:pageopacity="0.0"
   inkscape:pagecheckerboard="0"
   inkscape:deskcolor="#d1d1d1" />&#10;<style
   type="text/css"
   id="style1">&#10;	.st0{fill:#FFFFFF;}&#10;</style>&#10;<rect
   x="-2963012"
   y="-975512"
   width="1024"
   height="1024"
   id="rect1"
   style="stroke-width:0.418046" />&#10;<g
   id="g20"
   transform="translate(-2964000.1,-975619.87)">&#10;	<g
   id="g19"
   transform="matrix(0.57036525,0,0,0.57036525,644.47575,266.3177)"
   inkscape:export-filename="icon.png"
   inkscape:export-xdpi="32.768002"
   inkscape:export-ydpi="32.768002">&#10;		<g
   id="g4">&#10;			<g
   id="g1">&#10;				<path
   class="st0"
   d="m 1643.8,246.59 -62.38,104.92 57.67,47.96 46.96,-78.8 h 471.2 l 44.11,-74.08 z"
   id="path1" />&#10;			</g>&#10;			<g
   id="g3">&#10;				<g
   id="g2">&#10;					<polygon
   class="st0"
   points="1507.63,473.84 1323.2,320.82 929.22,320.82 1212,795.3 1168.89,867.68 798.75,246.59 1350.04,246.59 1604.26,457.85 1568.29,518.38 2039.49,518.38 1995.24,592.61 1524.04,592.61 1285.51,993.15 1199.15,993.15 1507.91,474.13 "
   id="polygon1" />&#10;				</g>&#10;			</g>&#10;		</g>&#10;		<g
   id="g18"
   style="display:none">&#10;			<g
   id="g17">&#10;				<g
   id="g16">&#10;					<path
   class="st0"
   d="m 462.6,1250.09 h -89.07 v 220.83 h 89.07 c 72.8,0 126.61,-42.97 126.61,-110.63 0,-67.38 -53.81,-110.2 -126.61,-110.2 z m 0,196.13 h -60.38 v -171.58 h 60.38 c 58.81,0 97.07,34.12 97.07,85.65 0,51.82 -38.26,85.93 -97.07,85.93 z"
   id="path4" />&#10;					<path
   class="st0"
   d="m 701.13,1250.09 v 220.83 h 28.55 v -220.83 z"
   id="path5" />&#10;					<path
   class="st0"
   d="M 1092.68,1354.01 H 967.63 v 23.84 l 94.64,0.43 c -2.28,10.56 -6,20.13 -11.13,29.26 -3,5.57 -7.28,10.56 -11.7,15.27 l -0.57,0.57 c -15.27,14.85 -36.54,24.55 -62.24,26.55 -3,0.43 -6.28,0.43 -9.56,0.43 h -3.71 c -35.83,-1.14 -64.38,-16.99 -79.65,-42.25 h -0.43 c -7.85,-13.56 -12.56,-29.55 -12.56,-47.82 0,-52.82 39.54,-89.64 96.35,-89.64 37.83,0 68.38,15.99 84.08,42.82 l 32.12,-0.43 c -18.56,-41.11 -62.09,-67.09 -116.19,-67.09 -72.37,0 -125.9,46.96 -125.9,114.34 0,66.8 51.82,113.63 122.91,114.62 h 9.56 c 3.71,-0.28 7.71,-0.71 11.42,-0.71 l 6.28,-1 c 11.85,-2 23.55,-5.28 33.55,-9.56 13.27,-5.71 25.12,-13.28 34.83,-22.55 0.29,-0.43 0.71,-0.71 0.71,-1.14 4.85,-4.71 9.56,-9.85 13.27,-15.56 l 0.86,-1 c 11.42,-16.56 17.7,-36.11 18.7,-58.1 -0.02,-6.57 -0.45,-8.57 -0.59,-11.28 z"
   id="path6" />&#10;					<path
   class="st0"
   d="m 1201.16,1250.09 v 220.83 h 28.41 v -220.83 z"
   id="path7" />&#10;					<path
   class="st0"
   d="m 1329.49,1250.09 v 24.27 h 83.65 v 196.56 h 28.55 v -196.56 h 84.08 v -24.27 z"
   id="path8" />&#10;					<path
   class="st0"
   d="m 1704.2,1250.09 h -32.97 l -101.21,220.83 h 31.83 l 25.98,-55.53 h 120.76 l 25.27,55.53 h 31.55 z m -65.09,141.46 48.82,-112.91 49.82,112.91 z"
   id="path9" />&#10;					<path
   class="st0"
   d="m 1934.3,1446.65 v -196.56 h -28.41 v 220.83 h 158.31 v -24.27 z"
   id="path10" />&#10;					<path
   class="st0"
   d="m 2193.24,1446.65 v -75.37 H 2313 v -23.98 h -119.76 v -72.94 h 139.18 v -24.27 h -167.73 v 220.83 h 170.72 v -24.27 z"
   id="path11" />&#10;					<path
   class="st0"
   d="m 2547.39,1368.28 h 3 c 45.82,0 73.8,-25.27 73.8,-59.52 0,-34.4 -27.98,-58.38 -73.8,-58.38 h -108.63 v 220.83 h 28.26 l 0.29,-102.92 h 44.11 l 75.51,102.63 h 36.54 z m -77.08,-24.69 v -69.23 h 80.08 c 28.55,0 44.11,12.42 44.11,34.12 0,21.27 -15.56,35.12 -44.11,35.12 h -80.08 z"
   id="path12" />&#10;					<g
   id="g15">&#10;						<polygon
   class="st0"
   points="911.43,1635.82 911.43,1622.14 817.17,1622.14 817.17,1753.32 831.98,1753.32 831.98,1696.16 903.01,1696.16 903.01,1682.67 831.98,1682.67 831.98,1635.82 "
   id="polygon12" />&#10;						<path
   class="st0"
   d="m 1097.67,1699.74 c 20.56,-3.85 35.54,-16.56 35.54,-38.4 0,-23.7 -18.7,-39.11 -47.39,-39.11 h -56.39 v 131.18 h 14.7 v -50.96 h 37.54 l 37.97,50.96 h 18.27 z m -53.53,-10.71 v -53.24 h 40.54 c 21.13,0 33.55,9.85 33.55,25.98 0,17.13 -14.13,27.26 -33.69,27.26 z"
   id="path13" />&#10;						<rect
   x="1257.67"
   y="1622.14"
   class="st0"
   width="14.81"
   height="131.17999"
   id="rect13" />&#10;						<polygon
   class="st0"
   points="1402.93,1622.14 1402.93,1753.32 1498.7,1753.32 1498.7,1739.83 1417.74,1739.83 1417.74,1693.91 1489.32,1693.91 1489.32,1680.42 1417.74,1680.42 1417.74,1635.63 1497.76,1635.63 1497.76,1622.14 "
   id="polygon13" />&#10;						<path
   class="st0"
   d="m 1663.8,1622.23 h -45.54 v 131.18 h 45.54 c 41.11,0 69.66,-28.83 69.66,-65.81 0,-37.11 -28.55,-65.37 -69.66,-65.37 z m 0,117.33 h -30.83 v -103.78 h 30.83 c 33.12,0 54.24,22.98 54.24,52.1 0,29.27 -21.12,51.68 -54.24,51.68 z"
   id="path14" />&#10;						<polygon
   class="st0"
   points="1856.72,1622.14 1856.72,1753.32 1952.47,1753.32 1952.47,1739.83 1871.52,1739.83 1871.52,1693.91 1943.11,1693.91 1943.11,1680.42 1871.52,1680.42 1871.52,1635.63 1951.54,1635.63 1951.54,1622.14 "
   id="polygon14" />&#10;						<polygon
   class="st0"
   points="2171.22,1753.32 2183.04,1753.32 2183.04,1622.14 2168.59,1622.14 2168.59,1727.27 2085.95,1622.14 2072.09,1622.14 2072.09,1753.32 2086.52,1753.32 2086.52,1645.76 "
   id="polygon15" />&#10;					</g>&#10;				</g>&#10;			</g>&#10;		</g>&#10;	</g>&#10;</g>&#10;</svg>
