<?xml version="1.0" encoding="utf-8"?>
<!-- Generator: Adobe Illustrator 24.3.0, SVG Export Plug-In . SVG Version: 6.00 Build 0)  -->
<svg version="1.1" id="Layer_1" xmlns="http://www.w3.org/2000/svg" xmlns:xlink="http://www.w3.org/1999/xlink" x="0px" y="0px"
	 viewBox="0 0 3000 2000" style="enable-background:new 0 0 3000 2000;" xml:space="preserve">
<style type="text/css">
	.st0{fill:#FFFFFF;}
</style>
<rect x="0" y="0" width="3000" height="2000"/>
<g>
	<g>
		<g>
			<g>
				<path class="st0" d="M1643.8,246.59l-62.38,104.92l57.67,47.96l46.96-78.8h471.2l44.11-74.08H1643.8z"/>
			</g>
			<g>
				<g>
					<polygon class="st0" points="2039.49,518.38 1995.24,592.61 1524.04,592.61 1285.51,993.15 1199.15,993.15 1507.91,474.13 
						1507.63,473.84 1323.2,320.82 929.22,320.82 1212,795.3 1168.89,867.68 798.75,246.59 1350.04,246.59 1604.26,457.85 
						1568.29,518.38 					"/>
				</g>
			</g>
		</g>
		<g>
			<g>
				<g>
					<path class="st0" d="M462.6,1250.09h-89.07v220.83h89.07c72.8,0,126.61-42.97,126.61-110.63
						C589.21,1292.91,535.4,1250.09,462.6,1250.09z M462.6,1446.22h-60.38v-171.58h60.38c58.81,0,97.07,34.12,97.07,85.65
						C559.67,1412.11,521.41,1446.22,462.6,1446.22z"/>
					<path class="st0" d="M701.13,1250.09v220.83h28.55v-220.83H701.13z"/>
					<path class="st0" d="M1092.68,1354.01H967.63v23.84l94.64,0.43c-2.28,10.56-6,20.13-11.13,29.26c-3,5.57-7.28,10.56-11.7,15.27
						l-0.57,0.57c-15.27,14.85-36.54,24.55-62.24,26.55c-3,0.43-6.28,0.43-9.56,0.43h-3.71c-35.83-1.14-64.38-16.99-79.65-42.25
						h-0.43c-7.85-13.56-12.56-29.55-12.56-47.82c0-52.82,39.54-89.64,96.35-89.64c37.83,0,68.38,15.99,84.08,42.82l32.12-0.43
						c-18.56-41.11-62.09-67.09-116.19-67.09c-72.37,0-125.9,46.96-125.9,114.34c0,66.8,51.82,113.63,122.91,114.62h9.56
						c3.71-0.28,7.71-0.71,11.42-0.71l6.28-1c11.85-2,23.55-5.28,33.55-9.56c13.27-5.71,25.12-13.28,34.83-22.55
						c0.29-0.43,0.71-0.71,0.71-1.14c4.85-4.71,9.56-9.85,13.27-15.56l0.86-1c11.42-16.56,17.7-36.11,18.7-58.1
						C1093.25,1358.72,1092.82,1356.72,1092.68,1354.01z"/>
					<path class="st0" d="M1201.16,1250.09v220.83h28.41v-220.83H1201.16z"/>
					<path class="st0" d="M1329.49,1250.09v24.27h83.65v196.56h28.55v-196.56h84.08v-24.27H1329.49z"/>
					<path class="st0" d="M1704.2,1250.09h-32.97l-101.21,220.83h31.83l25.98-55.53h120.76l25.27,55.53h31.55L1704.2,1250.09z
						 M1639.11,1391.55l48.82-112.91l49.82,112.91H1639.11z"/>
					<path class="st0" d="M1934.3,1446.65v-196.56h-28.41v220.83h158.31v-24.27H1934.3z"/>
					<path class="st0" d="M2193.24,1446.65v-75.37h119.76v-23.98h-119.76v-72.94h139.18v-24.27h-167.73v220.83h170.72v-24.27
						H2193.24z"/>
					<path class="st0" d="M2547.39,1368.28h3c45.82,0,73.8-25.27,73.8-59.52c0-34.4-27.98-58.38-73.8-58.38h-108.63v220.83h28.26
						l0.29-102.92h44.11l75.51,102.63h36.54L2547.39,1368.28z M2470.31,1343.59v-69.23h80.08c28.55,0,44.11,12.42,44.11,34.12
						c0,21.27-15.56,35.12-44.11,35.12H2470.31z"/>
					<g>
						<polygon class="st0" points="817.17,1753.32 831.98,1753.32 831.98,1696.16 903.01,1696.16 903.01,1682.67 831.98,1682.67 
							831.98,1635.82 911.43,1635.82 911.43,1622.14 817.17,1622.14 						"/>
						<path class="st0" d="M1097.67,1699.74c20.56-3.85,35.54-16.56,35.54-38.4c0-23.7-18.7-39.11-47.39-39.11h-56.39v131.18h14.7
							v-50.96h37.54l37.97,50.96h18.27L1097.67,1699.74z M1044.14,1689.03v-53.24h40.54c21.13,0,33.55,9.85,33.55,25.98
							c0,17.13-14.13,27.26-33.69,27.26H1044.14z"/>
						<rect x="1257.67" y="1622.14" class="st0" width="14.81" height="131.18"/>
						<polygon class="st0" points="1417.74,1693.91 1489.32,1693.91 1489.32,1680.42 1417.74,1680.42 1417.74,1635.63 
							1497.76,1635.63 1497.76,1622.14 1402.93,1622.14 1402.93,1753.32 1498.7,1753.32 1498.7,1739.83 1417.74,1739.83 						"/>
						<path class="st0" d="M1663.8,1622.23h-45.54v131.18h45.54c41.11,0,69.66-28.83,69.66-65.81
							C1733.46,1650.49,1704.91,1622.23,1663.8,1622.23z M1663.8,1739.56h-30.83v-103.78h30.83c33.12,0,54.24,22.98,54.24,52.1
							C1718.04,1717.15,1696.92,1739.56,1663.8,1739.56z"/>
						<polygon class="st0" points="1871.52,1693.91 1943.11,1693.91 1943.11,1680.42 1871.52,1680.42 1871.52,1635.63 
							1951.54,1635.63 1951.54,1622.14 1856.72,1622.14 1856.72,1753.32 1952.47,1753.32 1952.47,1739.83 1871.52,1739.83 						"/>
						<polygon class="st0" points="2168.59,1622.14 2168.59,1727.27 2085.95,1622.14 2072.09,1622.14 2072.09,1753.32 
							2086.52,1753.32 2086.52,1645.76 2171.22,1753.32 2183.04,1753.32 2183.04,1622.14 						"/>
					</g>
				</g>
			</g>
		</g>
	</g>
</g>
</svg>
